# xmcd
#
# Track frame offsets:
#	150
#	13888
#	23638
#	37470
#	55190
#	70755
#	75450
#	84163
#	90365
#	99160
#	108923
#	121083
#	122663
#	130965
#
# Disc length: 1892 seconds
#
# Revision: 0
# Processed by: cddbd v1.4PL0 Copyright (c) Steve Scherf et al.
# Submitted via: dBpowerAMP V4.0
#
DISCID=a307620e
DTITLE=Kenny Rogers - Christmas in America
DYEAR=1989
DGENRE=Country
TTITLE0=Christmas in America
TTITLE1=Winter Wonderland
TTITLE2=I'll be home for Christmas
TTITLE3=Silver bells
TTITLE4=Have yourself a merry little Christmas
TTITLE5=Christmas in America (reprise)
TTITLE6=Joy to the world
TTITLE7=Away in a manger
TTITLE8=O little town of Bethlehem
TTITLE9=God rest ye merry gentlemen
TTITLE10=The first noel
TTITLE11=Christmas in America (segue)
TTITLE12=What child is this
TTITLE13=Silent night
EXTD=
EXTT0=
EXTT1=
EXTT2=
EXTT3=
EXTT4=
EXTT5=
EXTT6=
EXTT7=
EXTT8=
EXTT9=
EXTT10=
EXTT11=
EXTT12=
EXTT13=
PLAYORDER=
